<svg width="32" height="33" viewBox="0 0 32 33" fill="none" xmlns="http://www.w3.org/2000/svg">
<path d="M17.4189 9.78206L18.4116 9.3743C19.2189 9.05286 20.2607 8.7272 21.4923 8.93421C24.0133 9.35794 25.7527 10.7192 26.7885 12.5248C27.1877 13.2207 26.8652 14.1373 26.1183 14.4299C24.8759 14.9164 23.9999 16.1252 23.9999 17.5352C23.9999 19.0121 24.9615 20.2681 26.2963 20.7044C26.9873 20.9304 27.3756 21.6975 27.1487 22.3881C26.5601 24.1784 25.7115 25.8303 24.7073 27.1636C23.7161 28.48 22.5053 29.5747 21.1573 30.1083C20.2784 30.4562 19.3337 30.3263 18.4303 30.1021L17.8941 29.9594L17.0983 29.7282C16.7371 29.6238 16.3663 29.5329 15.9999 29.5329C15.6335 29.5329 15.2627 29.6238 14.9015 29.7282L14.1058 29.9594L13.5695 30.1021C12.6661 30.3263 11.7214 30.4562 10.8425 30.1083C9.14482 29.4363 7.64738 27.8683 6.51651 26.0197C5.36559 24.1383 4.4934 21.8056 4.1378 19.3719C3.83499 17.2992 3.99846 14.9732 4.95751 13.0044C5.94522 10.9767 7.75176 9.39746 10.5075 8.93421C11.6272 8.74598 12.5901 8.99802 13.3624 9.28692L13.8026 9.46146L14.5809 9.78206C15.1139 9.99089 15.5353 10.1139 15.9999 10.1139C16.4646 10.1139 16.886 9.99088 17.4189 9.78206ZM15.6903 4.55889C16.992 3.25714 18.9901 3.14467 19.4615 3.61609C19.9329 4.08749 19.8204 6.08557 18.5187 7.38731C17.2169 8.68906 15.2188 8.80153 14.7475 8.33013C14.276 7.85873 14.3885 5.86063 15.6903 4.55889Z" fill="white"/>
</svg>
