<svg width="32" height="33" viewBox="0 0 32 33" fill="none" xmlns="http://www.w3.org/2000/svg">
<path d="M18.0001 30.0531C24.4151 29.088 29.3334 23.5527 29.3334 16.8687C29.3334 9.50487 23.3638 3.53534 16.0001 3.53534C8.63628 3.53534 2.66675 9.50487 2.66675 16.8687C2.66675 23.5527 7.58507 29.088 14.0001 30.0531V20.8687H12.0001C10.8955 20.8687 10.0001 19.9732 10.0001 18.8687C10.0001 17.7641 10.8955 16.8687 12.0001 16.8687H14.0001V14.202C14.0001 11.6247 16.0894 9.53534 18.6667 9.53534H19.3334C20.4379 9.53534 21.3334 10.4308 21.3334 11.5353C21.3334 12.6399 20.4379 13.5353 19.3334 13.5353H18.6667C18.2986 13.5353 18.0001 13.8338 18.0001 14.202V16.8687H20.0001C21.1046 16.8687 22.0001 17.7641 22.0001 18.8687C22.0001 19.9732 21.1046 20.8687 20.0001 20.8687H18.0001V30.0531Z" fill="white"/>
</svg>
