<svg width="32" height="33" viewBox="0 0 32 33" fill="none" xmlns="http://www.w3.org/2000/svg">
<path fill-rule="evenodd" clip-rule="evenodd" d="M15.9999 8.20197C11.2135 8.20197 7.33325 12.0822 7.33325 16.8686C7.33325 21.6552 11.2135 25.5353 15.9999 25.5353C20.0981 25.5353 23.5318 22.6909 24.4347 18.8686H17.3333C16.2287 18.8686 15.3333 17.9732 15.3333 16.8686C15.3333 15.7641 16.2287 14.8686 17.3333 14.8686H26.6666C27.7711 14.8686 28.6666 15.7641 28.6666 16.8686C28.6666 23.8642 22.9955 29.5353 15.9999 29.5353C9.00431 29.5353 3.33325 23.8642 3.33325 16.8686C3.33325 9.87302 9.00431 4.20197 15.9999 4.20197C19.4846 4.20197 22.6438 5.61174 24.9319 7.88733C25.7151 8.66623 25.7186 9.93257 24.9397 10.7158C24.1607 11.4989 22.8945 11.5024 22.1113 10.7235C20.5421 9.1629 18.3851 8.20197 15.9999 8.20197Z" fill="white"/>
</svg>
