<svg width="24" height="25" viewBox="0 0 24 25" fill="none" xmlns="http://www.w3.org/2000/svg">
<path d="M17.2905 12.8373C17.2905 13.576 16.6984 14.1748 15.9679 14.1748C15.2374 14.1748 14.6453 13.576 14.6453 12.8373C14.6453 12.0986 15.2374 11.4998 15.9679 11.4998C16.6984 11.4998 17.2905 12.0986 17.2905 12.8373Z" fill="#fff"/>
<path fill-rule="evenodd" clip-rule="evenodd" d="M18.1316 8.27664C17.2832 8.15597 16.1897 8.15599 14.8267 8.15601H9.17326C7.81031 8.15599 6.7168 8.15597 5.86839 8.27664C4.99062 8.40148 4.25955 8.66937 3.71603 9.29716C3.17252 9.92494 3.00655 10.6932 3.00019 11.5895C2.99404 12.4559 3.13858 13.552 3.31873 14.9182L3.68419 17.69C3.825 18.7581 3.93897 19.6226 4.11616 20.2995C4.3006 21.0041 4.57289 21.5883 5.08383 22.0407C5.59477 22.493 6.20337 22.6888 6.91841 22.7805C7.60534 22.8687 8.46777 22.8687 9.53332 22.8686H14.4667C15.5322 22.8687 16.3947 22.8687 17.0816 22.7805C17.7966 22.6888 18.4052 22.493 18.9162 22.0407C19.4271 21.5883 19.6994 21.0041 19.8838 20.2995C20.061 19.6226 20.175 18.7581 20.3158 17.69L20.6813 14.9182C20.8614 13.552 21.006 12.4559 20.9998 11.5895C20.9934 10.6932 20.8275 9.92494 20.284 9.29716C19.7404 8.66937 19.0094 8.40148 18.1316 8.27664ZM6.05259 9.60112C5.32568 9.7045 4.95802 9.89307 4.71116 10.1782C4.4643 10.4633 4.32805 10.8568 4.32278 11.5991C4.31738 12.3604 4.44802 13.3631 4.63662 14.7935L4.68663 15.1728L5.05822 14.9007C6.0171 14.1984 7.43388 14.2329 8.34576 14.9962L11.7301 17.8289C12.0499 18.0967 12.6011 18.1467 12.9989 17.9127L13.2341 17.7743C14.3594 17.1124 15.8676 17.1822 16.9059 17.9644L18.7378 19.3444C18.8281 18.8488 18.909 18.2396 19.0107 17.4685L19.3634 14.7935C19.552 13.3631 19.6826 12.3604 19.6772 11.5991C19.6719 10.8568 19.5357 10.4633 19.2888 10.1782C19.042 9.89307 18.6743 9.7045 17.9474 9.60112C17.2019 9.49508 16.2018 9.49352 14.7748 9.49352H9.22521C7.79821 9.49352 6.7981 9.49508 6.05259 9.60112Z" fill="#fff"/>
<g opacity="0.7">
<path d="M6.87957 5.36865C5.62801 5.36865 4.60177 6.2084 4.2593 7.32243C4.25216 7.34565 4.24531 7.36899 4.23877 7.39245C4.5971 7.27188 4.97003 7.19311 5.34755 7.13934C6.31989 7.00083 7.54869 7.0009 8.97612 7.00099L9.08272 7.00099L15.179 7.00099C16.6064 7.0009 17.8352 7.00083 18.8076 7.13934C19.1851 7.19311 19.558 7.27188 19.9164 7.39245C19.9098 7.36899 19.903 7.34565 19.8958 7.32243C19.5534 6.2084 18.5271 5.36865 17.2756 5.36865H6.87957Z" fill="#fff"/>
</g>
<g opacity="0.4">
<path d="M8.85899 2.86866H15.1411C15.3503 2.8686 15.5107 2.86856 15.651 2.8838C16.648 2.99217 17.4641 3.65823 17.8101 4.55541H6.18994C6.53601 3.65823 7.35208 2.99217 8.34912 2.8838C8.48935 2.86856 8.64976 2.8686 8.85899 2.86866Z" fill="#fff"/>
</g>
</svg>
