<svg width="20" height="21" viewBox="0 0 20 21" fill="none" xmlns="http://www.w3.org/2000/svg">
<path fill-rule="evenodd" clip-rule="evenodd" d="M20 10.8687C20 15.5827 20 17.9397 18.5355 19.4042C17.0711 20.8687 14.714 20.8687 10 20.8687C5.28595 20.8687 2.92893 20.8687 1.46447 19.4042C0 17.9397 0 15.5827 0 10.8687C0 6.15461 0 3.79759 1.46447 2.33312C2.92893 0.868652 5.28595 0.868652 10 0.868652C14.714 0.868652 17.0711 0.868652 18.5355 2.33312C20 3.79758 20 6.15461 20 10.8687ZM15.4545 5.77208C15.784 6.02311 15.8476 6.49371 15.5966 6.82318L8.73943 15.8232C8.60289 16.0024 8.39301 16.1107 8.16784 16.1182C7.94266 16.1257 7.72604 16.0316 7.57787 15.8619L4.43501 12.2619C4.1626 11.9499 4.19472 11.4761 4.50676 11.2037C4.81879 10.9313 5.29258 10.9634 5.56499 11.2754L8.10334 14.183L14.4034 5.91412C14.6545 5.58464 15.1251 5.52105 15.4545 5.77208Z" fill="#5AD0B4"/>
</svg>
