<svg width="24" height="25" viewBox="0 0 24 25" fill="none" xmlns="http://www.w3.org/2000/svg">
<g clip-path="url(#clip0_777_7725)">
<path d="M15 13.6187C15.4142 13.6187 15.75 13.2829 15.75 12.8687C15.75 12.4544 15.4142 12.1187 15 12.1187H9C8.58579 12.1187 8.25 12.4544 8.25 12.8687C8.25 13.2829 8.58579 13.6187 9 13.6187H15Z" fill="white"/>
<path fill-rule="evenodd" clip-rule="evenodd" d="M12.0574 2.11865H11.9426C9.63424 2.11864 7.82519 2.11863 6.41371 2.3084C4.96897 2.50264 3.82895 2.90798 2.93414 3.80279C2.03933 4.6976 1.63399 5.83762 1.43975 7.28236C1.24998 8.69384 1.24999 10.5029 1.25 12.8113V12.926C1.24999 15.2344 1.24998 17.0435 1.43975 18.4549C1.63399 19.8997 2.03933 21.0397 2.93414 21.9345C3.82895 22.8293 4.96897 23.2347 6.41371 23.4289C7.82519 23.6187 9.63423 23.6187 11.9426 23.6187H12.0574C14.3658 23.6187 16.1748 23.6187 17.5863 23.4289C19.031 23.2347 20.1711 22.8293 21.0659 21.9345C21.9607 21.0397 22.366 19.8997 22.5603 18.4549C22.75 17.0435 22.75 15.2344 22.75 12.926V12.8113C22.75 10.5029 22.75 8.69385 22.5603 7.28236C22.366 5.83762 21.9607 4.6976 21.0659 3.80279C20.1711 2.90798 19.031 2.50264 17.5863 2.3084C16.1748 2.11863 14.3658 2.11864 12.0574 2.11865ZM3.9948 4.86345C4.56445 4.29379 5.33517 3.9669 6.61358 3.79502C7.91356 3.62025 9.62177 3.61865 12 3.61865C14.3782 3.61865 16.0864 3.62025 17.3864 3.79502C18.6648 3.9669 19.4355 4.29379 20.0052 4.86345C20.5749 5.43311 20.9018 6.20383 21.0736 7.48223C21.2484 8.78221 21.25 10.4904 21.25 12.8687C21.25 15.2469 21.2484 16.9551 21.0736 18.2551C20.9018 19.5335 20.5749 20.3042 20.0052 20.8739C19.4355 21.4435 18.6648 21.7704 17.3864 21.9423C16.0864 22.1171 14.3782 22.1187 12 22.1187C9.62177 22.1187 7.91356 22.1171 6.61358 21.9423C5.33517 21.7704 4.56445 21.4435 3.9948 20.8739C3.42514 20.3042 3.09825 19.5335 2.92637 18.2551C2.75159 16.9551 2.75 15.2469 2.75 12.8687C2.75 10.4904 2.75159 8.78221 2.92637 7.48223C3.09825 6.20383 3.42514 5.43311 3.9948 4.86345Z" fill="white"/>
</g>
<defs>
<clipPath id="clip0_777_7725">
<rect width="24" height="24" fill="white" transform="translate(0 0.868652)"/>
</clipPath>
</defs>
</svg>
