<svg width="32" height="33" viewBox="0 0 32 33" fill="none" xmlns="http://www.w3.org/2000/svg">
<g id="Bold / Time / Clock Circle">
<g id="Vector">
<path d="M29.3334 16.8686C29.3334 24.2324 23.3639 30.2019 16.0001 30.2019C8.63628 30.2019 2.66675 24.2324 2.66675 16.8686C2.66675 9.50481 8.63628 3.53528 16.0001 3.53528C23.3639 3.53528 29.3334 9.50481 29.3334 16.8686Z" fill="white"/>
<path fill-rule="evenodd" clip-rule="evenodd" d="M16.0001 10.5353C16.5524 10.5353 17.0001 10.983 17.0001 11.5353V16.4544L20.0405 19.4948C20.431 19.8854 20.431 20.5185 20.0405 20.9091C19.65 21.2996 19.0168 21.2996 18.6263 20.9091L15.293 17.5757C15.1054 17.3882 15.0001 17.1338 15.0001 16.8686V11.5353C15.0001 10.983 15.4478 10.5353 16.0001 10.5353Z" fill="#514B77"/>
</g>
</g>
</svg>
