<svg width="22" height="18" viewBox="0 0 22 18" fill="none" xmlns="http://www.w3.org/2000/svg">
<path fill-rule="evenodd" clip-rule="evenodd" d="M8.94358 0.118653H13.0564C14.8942 0.118637 16.3498 0.118624 17.489 0.271788C18.6614 0.429416 19.6104 0.761533 20.3588 1.5099C21.1071 2.25826 21.4392 3.20721 21.5969 4.37963C21.75 5.51885 21.75 6.97448 21.75 8.81224V8.92506C21.75 10.7628 21.75 12.2185 21.5969 13.3577C21.4392 14.5301 21.1071 15.479 20.3588 16.2274C19.6104 16.9758 18.6614 17.3079 17.489 17.4655C16.3498 17.6187 14.8942 17.6187 13.0564 17.6187H8.94359C7.10583 17.6187 5.65019 17.6187 4.51098 17.4655C3.33856 17.3079 2.38961 16.9758 1.64124 16.2274C0.89288 15.479 0.560763 14.5301 0.403135 13.3577C0.249972 12.2185 0.249984 10.7628 0.25 8.92507V8.81224C0.249984 6.97448 0.249972 5.51884 0.403135 4.37963C0.560763 3.20721 0.89288 2.25826 1.64124 1.5099C2.38961 0.761533 3.33856 0.429416 4.51098 0.271788C5.65019 0.118624 7.10582 0.118637 8.94358 0.118653ZM4.71085 1.75841C3.70476 1.89368 3.12511 2.14735 2.7019 2.57056C2.27869 2.99377 2.02502 3.57341 1.88976 4.5795C1.75159 5.60717 1.75 6.96183 1.75 8.86865C1.75 10.7755 1.75159 12.1301 1.88976 13.1578C2.02502 14.1639 2.27869 14.7435 2.7019 15.1668C3.12511 15.59 3.70476 15.8436 4.71085 15.9789C5.73851 16.1171 7.09318 16.1187 9 16.1187H13C14.9068 16.1187 16.2615 16.1171 17.2892 15.9789C18.2952 15.8436 18.8749 15.59 19.2981 15.1668C19.7213 14.7435 19.975 14.1639 20.1102 13.1578C20.2484 12.1301 20.25 10.7755 20.25 8.86865C20.25 6.96183 20.2484 5.60717 20.1102 4.5795C19.975 3.57341 19.7213 2.99377 19.2981 2.57056C18.8749 2.14735 18.2952 1.89368 17.2892 1.75841C16.2615 1.62025 14.9068 1.61865 13 1.61865H9C7.09318 1.61865 5.73851 1.62025 4.71085 1.75841ZM4.42383 4.38851C4.68901 4.07031 5.16193 4.02731 5.48014 4.29249L7.63903 6.09157C8.57199 6.86903 9.21973 7.40707 9.76658 7.75878C10.2959 8.09924 10.6549 8.21353 11 8.21353C11.3451 8.21353 11.7041 8.09924 12.2334 7.75878C12.7803 7.40707 13.428 6.86903 14.361 6.09157L16.5199 4.29249C16.8381 4.02731 17.311 4.07031 17.5762 4.38851C17.8413 4.70672 17.7983 5.17965 17.4801 5.44482L15.2836 7.27523C14.3973 8.01388 13.6789 8.61257 13.0448 9.02038C12.3843 9.44518 11.7411 9.71353 11 9.71353C10.2589 9.71353 9.61567 9.44518 8.95518 9.02038C8.32112 8.61258 7.60272 8.01389 6.71636 7.27524L4.51986 5.44482C4.20165 5.17965 4.15866 4.70672 4.42383 4.38851Z" fill="white"/>
</svg>
