<svg width="22" height="22" viewBox="0 0 22 22" fill="none" xmlns="http://www.w3.org/2000/svg">
<path d="M9.0303 7.83831C8.73741 7.54541 8.26253 7.54541 7.96964 7.83831C7.67675 8.1312 7.67675 8.60607 7.96964 8.89897L9.93932 10.8686L7.96966 12.8383C7.67677 13.1312 7.67677 13.6061 7.96966 13.899C8.26255 14.1919 8.73743 14.1919 9.03032 13.899L11 11.9293L12.9696 13.8989C13.2625 14.1918 13.7374 14.1918 14.0303 13.8989C14.3232 13.6061 14.3232 13.1312 14.0303 12.8383L12.0606 10.8686L14.0303 8.89899C14.3232 8.60609 14.3232 8.13122 14.0303 7.83833C13.7374 7.54543 13.2625 7.54543 12.9696 7.83833L11 9.80799L9.0303 7.83831Z" fill="#E87C92"/>
<path fill-rule="evenodd" clip-rule="evenodd" d="M11 0.118652C5.06294 0.118652 0.25 4.93159 0.25 10.8687C0.25 16.8057 5.06294 21.6187 11 21.6187C16.9371 21.6187 21.75 16.8057 21.75 10.8687C21.75 4.93159 16.9371 0.118652 11 0.118652ZM1.75 10.8687C1.75 5.76002 5.89137 1.61865 11 1.61865C16.1086 1.61865 20.25 5.76002 20.25 10.8687C20.25 15.9773 16.1086 20.1187 11 20.1187C5.89137 20.1187 1.75 15.9773 1.75 10.8687Z" fill="#E87C92"/>
</svg>
