<svg width="22" height="18" viewBox="0 0 22 18" fill="none" xmlns="http://www.w3.org/2000/svg">
<path fill-rule="evenodd" clip-rule="evenodd" d="M11 5.11865C8.92893 5.11865 7.25 6.79758 7.25 8.86865C7.25 10.9397 8.92893 12.6187 11 12.6187C13.0711 12.6187 14.75 10.9397 14.75 8.86865C14.75 6.79758 13.0711 5.11865 11 5.11865ZM8.75 8.86865C8.75 7.62601 9.75736 6.61865 11 6.61865C12.2426 6.61865 13.25 7.62601 13.25 8.86865C13.25 10.1113 12.2426 11.1187 11 11.1187C9.75736 11.1187 8.75 10.1113 8.75 8.86865Z" fill="white"/>
<path fill-rule="evenodd" clip-rule="evenodd" d="M11 0.118652C6.48587 0.118652 3.44529 2.82285 1.68057 5.11552L1.64874 5.15685C1.24964 5.67518 0.88206 6.15257 0.632687 6.71705C0.365645 7.32152 0.25 7.98034 0.25 8.86865C0.25 9.75696 0.365645 10.4158 0.632687 11.0203C0.882062 11.5847 1.24964 12.0621 1.64875 12.5805L1.68057 12.6218C3.44529 14.9145 6.48587 17.6187 11 17.6187C15.5141 17.6187 18.5547 14.9145 20.3194 12.6218L20.3512 12.5805C20.7504 12.0621 21.1179 11.5847 21.3673 11.0203C21.6344 10.4158 21.75 9.75696 21.75 8.86865C21.75 7.98034 21.6344 7.32152 21.3673 6.71705C21.1179 6.15256 20.7504 5.67517 20.3512 5.15683L20.3194 5.11551C18.5547 2.82285 15.5141 0.118652 11 0.118652ZM2.86922 6.03045C4.49864 3.91357 7.15036 1.61865 11 1.61865C14.8496 1.61865 17.5014 3.91357 19.1308 6.03045C19.5694 6.60024 19.8263 6.94071 19.9952 7.3232C20.1532 7.68067 20.25 8.11759 20.25 8.86865C20.25 9.61972 20.1532 10.0566 19.9952 10.4141C19.8263 10.7966 19.5694 11.1371 19.1308 11.7069C17.5014 13.8237 14.8496 16.1187 11 16.1187C7.15036 16.1187 4.49864 13.8237 2.86922 11.7069C2.43064 11.1371 2.17374 10.7966 2.00476 10.4141C1.84684 10.0566 1.75 9.61972 1.75 8.86865C1.75 8.11759 1.84684 7.68067 2.00476 7.3232C2.17374 6.94071 2.43063 6.60024 2.86922 6.03045Z" fill="white"/>
</svg>
