<svg width="22" height="12" viewBox="0 0 22 12" fill="none" xmlns="http://www.w3.org/2000/svg">
<path fill-rule="evenodd" clip-rule="evenodd" d="M21.2954 0.179303C21.6761 0.342469 21.8524 0.783378 21.6893 1.1641L20.9999 0.868662C21.6893 1.1641 21.6894 1.16392 21.6893 1.1641L21.6886 1.16578L21.6875 1.16827L21.6843 1.17562L21.6736 1.1997C21.6646 1.21984 21.6518 1.24805 21.6352 1.28374C21.6019 1.35509 21.5533 1.45641 21.4888 1.58282C21.3599 1.83546 21.1675 2.18934 20.9084 2.60513C20.4828 3.28817 19.8724 4.14632 19.0619 4.99884L20.0303 5.96717C20.3231 6.26006 20.3231 6.73494 20.0303 7.02783C19.7374 7.32072 19.2625 7.32072 18.9696 7.02783L17.969 6.02725C17.3093 6.57994 16.5528 7.09869 15.695 7.52489L16.6286 8.95962C16.8545 9.30681 16.7562 9.77139 16.409 9.9973C16.0618 10.2232 15.5972 10.1249 15.3713 9.7777L14.2821 8.10381C13.5028 8.35832 12.659 8.53127 11.7499 8.59328V10.3687C11.7499 10.7829 11.4141 11.1187 10.9999 11.1187C10.5857 11.1187 10.2499 10.7829 10.2499 10.3687V8.59328C9.36889 8.53319 8.54909 8.36887 7.78982 8.12706L6.71575 9.77777C6.48984 10.125 6.02526 10.2233 5.67807 9.99737C5.33089 9.77146 5.23257 9.30688 5.45847 8.95969L6.37089 7.55743C5.5065 7.13532 4.74381 6.61883 4.07842 6.06692L3.11744 7.0279C2.82455 7.32079 2.34968 7.32079 2.05678 7.0279C1.76389 6.735 1.76389 6.26013 2.05678 5.96724L2.98055 5.04347C2.15599 4.18378 1.53525 3.31522 1.10277 2.62333C0.839844 2.2027 0.644595 1.84431 0.513882 1.58835C0.448481 1.46029 0.399104 1.35761 0.36537 1.2853C0.3485 1.24914 0.33553 1.22054 0.326415 1.20014L0.315621 1.17575L0.312378 1.16831L0.311293 1.1658L0.310885 1.16485C0.310808 1.16467 0.310565 1.1641 0.999924 0.868662L0.310885 1.16485C0.147718 0.784123 0.323762 0.342469 0.704484 0.179303C1.08489 0.0162704 1.52539 0.19221 1.68888 0.572283C1.68882 0.572151 1.68894 0.572414 1.68888 0.572283L1.68983 0.574473L1.69591 0.588187C1.7018 0.601382 1.7114 0.622569 1.72472 0.651141C1.75139 0.708301 1.79296 0.794911 1.84976 0.906135C1.96345 1.12876 2.13762 1.44893 2.37472 1.82826C2.85033 2.58914 3.57157 3.57575 4.55561 4.49025C5.42151 5.29497 6.48259 6.03622 7.75165 6.52447C8.70614 6.89169 9.78537 7.11866 10.9999 7.11866C12.2416 7.11866 13.342 6.88142 14.3124 6.49948C15.5738 6.00299 16.6277 5.25691 17.4866 4.45065C18.4562 3.54063 19.1668 2.56382 19.6354 1.81187C19.869 1.43697 20.0405 1.12093 20.1525 0.90133C20.2085 0.791615 20.2494 0.70623 20.2757 0.649907C20.2888 0.621754 20.2983 0.600888 20.3041 0.587902L20.31 0.574419L20.3106 0.573222C20.3105 0.57332 20.3106 0.573124 20.3106 0.573222M21.2954 0.179303C20.9147 0.016178 20.4738 0.192703 20.3106 0.573222L21.2954 0.179303ZM1.68888 0.572283C1.68882 0.572151 1.68894 0.572414 1.68888 0.572283V0.572283Z" fill="white"/>
</svg>
