<svg width="16" height="16" viewBox="0 0 16 16" fill="none" xmlns="http://www.w3.org/2000/svg">
<path d="M5.52002 1.66667C5.94002 1.67944 6.34669 1.75277 6.74069 1.88677H6.78002C6.80669 1.89944 6.82669 1.91344 6.84002 1.92611C6.98735 1.97344 7.12669 2.02677 7.26002 2.10011L7.51335 2.21344C7.61335 2.26677 7.73335 2.36611 7.80002 2.40677C7.86669 2.44611 7.94002 2.48677 8.00002 2.53277C8.74069 1.96677 9.64002 1.66011 10.5667 1.66667C10.9874 1.66667 11.4074 1.72611 11.8067 1.86011C14.2674 2.66011 15.154 5.36011 14.4134 7.72011C13.9934 8.92611 13.3067 10.0268 12.4074 10.9261C11.12 12.1728 9.70735 13.2794 8.18669 14.2328L8.02002 14.3334L7.84669 14.2261C6.32069 13.2794 4.90002 12.1728 3.60069 10.9194C2.70735 10.0201 2.02002 8.92611 1.59335 7.72011C0.840021 5.36011 1.72669 2.66011 4.21402 1.84611C4.40735 1.77944 4.60669 1.73277 4.80669 1.70677H4.88669C5.07402 1.67944 5.26002 1.66667 5.44669 1.66667H5.52002ZM11.46 3.77344C11.1867 3.67944 10.8867 3.82677 10.7867 4.10677C10.6934 4.38677 10.84 4.69344 11.12 4.79277C11.5474 4.95277 11.8334 5.37344 11.8334 5.83944V5.86011C11.8207 6.01277 11.8667 6.16011 11.96 6.27344C12.0534 6.38677 12.1934 6.45277 12.34 6.46677C12.6134 6.45944 12.8467 6.24011 12.8667 5.95944V5.88011C12.8867 4.94611 12.3207 4.10011 11.46 3.77344Z" fill="#FEFDFF"/>
</svg>
