<svg width="24" height="25" viewBox="0 0 24 25" fill="none" xmlns="http://www.w3.org/2000/svg">
<path fill-rule="evenodd" clip-rule="evenodd" d="M5.62436 5.29285C3.96537 6.05118 2.75 7.85489 2.75 10.0058C2.75 12.2032 3.64922 13.8969 4.93829 15.3484C6.00072 16.5448 7.28684 17.5363 8.54113 18.5033C8.83904 18.7329 9.13515 18.9612 9.42605 19.1905C9.95208 19.6052 10.4213 19.9692 10.8736 20.2335C11.3261 20.4979 11.6904 20.6187 12 20.6187C12.3096 20.6187 12.6739 20.4979 13.1264 20.2335C13.5787 19.9692 14.0479 19.6052 14.574 19.1905C14.8649 18.9612 15.161 18.7329 15.4589 18.5033C16.7132 17.5363 17.9993 16.5448 19.0617 15.3484C20.3508 13.8969 21.25 12.2032 21.25 10.0058C21.25 7.85489 20.0346 6.05118 18.3756 5.29285C16.7639 4.55613 14.5983 4.75123 12.5404 6.88939C12.399 7.03628 12.2039 7.11929 12 7.11929C11.7961 7.11929 11.601 7.03628 11.4596 6.88939C9.40166 4.75123 7.23607 4.55613 5.62436 5.29285ZM12 5.32747C9.68795 3.2589 7.09896 2.96952 5.00076 3.92862C2.78471 4.94158 1.25 7.29369 1.25 10.0058C1.25 12.6713 2.3605 14.7047 3.81672 16.3445C4.98287 17.6576 6.41022 18.7566 7.67083 19.7272C7.95659 19.9473 8.23378 20.1607 8.49742 20.3685C9.00965 20.7723 9.55954 21.2029 10.1168 21.5286C10.6739 21.8541 11.3096 22.1187 12 22.1187C12.6904 22.1187 13.3261 21.8541 13.8832 21.5286C14.4405 21.2029 14.9903 20.7723 15.5026 20.3685C15.7662 20.1607 16.0434 19.9473 16.3292 19.7272C17.5898 18.7566 19.0171 17.6576 20.1833 16.3445C21.6395 14.7047 22.75 12.6713 22.75 10.0058C22.75 7.29369 21.2153 4.94158 18.9992 3.92862C16.901 2.96952 14.3121 3.2589 12 5.32747Z" fill="white"/>
</svg>
