<svg width="24" height="25" viewBox="0 0 24 25" fill="none" xmlns="http://www.w3.org/2000/svg">
<path d="M12 14.1187C12.4142 14.1187 12.75 14.4544 12.75 14.8687V18.8687C12.75 19.2829 12.4142 19.6187 12 19.6187C11.5858 19.6187 11.25 19.2829 11.25 18.8687V14.8687C11.25 14.4544 11.5858 14.1187 12 14.1187Z" fill="white"/>
<path fill-rule="evenodd" clip-rule="evenodd" d="M5.25 10.1714V8.86865C5.25 5.14073 8.27208 2.11865 12 2.11865C15.7279 2.11865 18.75 5.14073 18.75 8.86865V10.1714C18.9768 10.1874 19.1906 10.2081 19.3918 10.2352C20.2919 10.3562 21.0497 10.6151 21.6517 11.217C22.2536 11.8189 22.5125 12.5768 22.6335 13.4769C22.75 14.3439 22.75 15.4462 22.75 16.8138V16.9235C22.75 18.2911 22.75 19.3934 22.6335 20.2604C22.5125 21.1605 22.2536 21.9184 21.6517 22.5203C21.0497 23.1222 20.2919 23.3811 19.3918 23.5021C18.5248 23.6187 17.4225 23.6187 16.0549 23.6187H7.94513C6.57754 23.6187 5.47522 23.6187 4.60825 23.5021C3.70814 23.3811 2.95027 23.1222 2.34835 22.5203C1.74643 21.9184 1.48754 21.1605 1.36652 20.2604C1.24996 19.3934 1.24998 18.2911 1.25 16.9235V16.8138C1.24998 15.4462 1.24996 14.3439 1.36652 13.4769C1.48754 12.5768 1.74643 11.8189 2.34835 11.217C2.95027 10.6151 3.70814 10.3562 4.60825 10.2352C4.80938 10.2081 5.02317 10.1874 5.25 10.1714ZM6.75 8.86865C6.75 5.96916 9.10051 3.61865 12 3.61865C14.8995 3.61865 17.25 5.96916 17.25 8.86865V10.1221C16.8765 10.1186 16.4784 10.1186 16.0549 10.1187H7.94513C7.52161 10.1186 7.12353 10.1186 6.75 10.1221V8.86865ZM4.80812 11.7218C4.07435 11.8205 3.68577 12.0009 3.40901 12.2777C3.13225 12.5544 2.9518 12.943 2.85315 13.6768C2.75159 14.4321 2.75 15.4332 2.75 16.8687C2.75 18.3041 2.75159 19.3052 2.85315 20.0605C2.9518 20.7943 3.13225 21.1829 3.40901 21.4596C3.68577 21.7364 4.07435 21.9169 4.80812 22.0155C5.56347 22.1171 6.56459 22.1187 8 22.1187H16C17.4354 22.1187 18.4365 22.1171 19.1919 22.0155C19.9257 21.9169 20.3142 21.7364 20.591 21.4596C20.8678 21.1829 21.0482 20.7943 21.1469 20.0605C21.2484 19.3052 21.25 18.3041 21.25 16.8687C21.25 15.4332 21.2484 14.4321 21.1469 13.6768C21.0482 12.943 20.8678 12.5544 20.591 12.2777C20.3142 12.0009 19.9257 11.8205 19.1919 11.7218C18.4365 11.6202 17.4354 11.6187 16 11.6187H8C6.56459 11.6187 5.56347 11.6202 4.80812 11.7218Z" fill="white"/>
</svg>
