<svg width="32" height="33" viewBox="0 0 32 33" fill="none" xmlns="http://www.w3.org/2000/svg">
<g id="Bold / Map &#38; Location / Map Point Wave">
<path id="Vector" d="M16.0001 30.2024C23.3639 30.2024 29.3334 27.5162 29.3334 24.2024C29.3334 22.5136 27.7828 20.9877 25.2873 19.8973C23.7645 22.6918 21.4424 25.1005 18.4928 26.361C16.9073 27.0385 15.0928 27.0385 13.5074 26.361C10.5578 25.1005 8.23563 22.6918 6.71286 19.8973C4.21735 20.9877 2.66675 22.5136 2.66675 24.2024C2.66675 27.5162 8.63628 30.2024 16.0001 30.2024Z" fill="white"/>
<path id="Vector_2" fill-rule="evenodd" clip-rule="evenodd" d="M6.66675 12.2215C6.66675 7.42421 10.8454 3.53528 16.0001 3.53528C21.1547 3.53528 25.3334 7.42421 25.3334 12.2215C25.3334 16.9811 22.3545 22.5352 17.7068 24.5214C16.6234 24.9844 15.3768 24.9844 14.2933 24.5214C9.64563 22.5352 6.66675 16.9811 6.66675 12.2215ZM16.0001 15.5353C17.4728 15.5353 18.6667 14.3414 18.6667 12.8686C18.6667 11.3959 17.4728 10.2019 16.0001 10.2019C14.5273 10.2019 13.3334 11.3959 13.3334 12.8686C13.3334 14.3414 14.5273 15.5353 16.0001 15.5353Z" fill="white"/>
</g>
</svg>
