<svg width="17" height="17" viewBox="0 0 17 17" fill="none" xmlns="http://www.w3.org/2000/svg">
<path fill-rule="evenodd" clip-rule="evenodd" d="M2.3056 7.49963C2.3056 4.23362 4.90894 1.57077 8.13894 1.57077C11.3689 1.57077 13.9723 4.23362 13.9723 7.49963C13.9723 9.07637 13.5229 10.7694 12.7286 12.232C11.9352 13.6928 10.776 14.9622 9.32594 15.64C8.57265 15.9921 7.70523 15.9921 6.95193 15.64C5.50185 14.9622 4.34268 13.6928 3.54931 12.232C2.75496 10.7694 2.3056 9.07637 2.3056 7.49963ZM8.13894 2.57077C5.47789 2.57077 3.3056 4.76909 3.3056 7.49963C3.3056 8.89768 3.70736 10.4277 4.42807 11.7548C5.14976 13.0836 6.16962 14.1705 7.37537 14.7341C7.8603 14.9608 8.41757 14.9608 8.90251 14.7341C10.1083 14.1705 11.1281 13.0836 11.8498 11.7548C12.5705 10.4277 12.9723 8.89768 12.9723 7.49963C12.9723 4.76909 10.8 2.57077 8.13894 2.57077ZM8.13894 5.9041C7.31051 5.9041 6.63894 6.57568 6.63894 7.4041C6.63894 8.23253 7.31051 8.9041 8.13894 8.9041C8.96736 8.9041 9.63894 8.23253 9.63894 7.4041C9.63894 6.57568 8.96736 5.9041 8.13894 5.9041ZM5.63894 7.4041C5.63894 6.02339 6.75822 4.9041 8.13894 4.9041C9.51965 4.9041 10.6389 6.02339 10.6389 7.4041C10.6389 8.78481 9.51965 9.9041 8.13894 9.9041C6.75822 9.9041 5.63894 8.78481 5.63894 7.4041Z" fill="white"/>
</svg>
