<svg width="24" height="25" viewBox="0 0 24 25" fill="none" xmlns="http://www.w3.org/2000/svg">
<g id="Bold Duotone / Video, Audio, Sound / Microphone 2">
<path id="Vector" fill-rule="evenodd" clip-rule="evenodd" d="M4 9.86865C4.41421 9.86865 4.75 10.2044 4.75 10.6187V11.6187C4.75 15.6227 7.99594 18.8687 12 18.8687C16.0041 18.8687 19.25 15.6227 19.25 11.6187V10.6187C19.25 10.2044 19.5858 9.86865 20 9.86865C20.4142 9.86865 20.75 10.2044 20.75 10.6187V11.6187C20.75 16.1985 17.2314 19.9565 12.75 20.337V22.6187C12.75 23.0329 12.4142 23.3687 12 23.3687C11.5858 23.3687 11.25 23.0329 11.25 22.6187V20.337C6.7686 19.9565 3.25 16.1985 3.25 11.6187V10.6187C3.25 10.2044 3.58579 9.86865 4 9.86865Z" fill="#fff"/>
<path id="Vector_2" opacity="0.5" d="M9.75 8.61865C9.75 8.20444 9.41421 7.86865 9 7.86865H7.81597H6.29847C6.66598 5.04739 9.07855 2.86865 12 2.86865C14.9214 2.86865 17.334 5.04739 17.7015 7.86865H16.184L13.5 7.86865C13.0858 7.86865 12.75 8.20444 12.75 8.61865C12.75 9.03287 13.0858 9.36865 13.5 9.36865L16.25 9.36865H17.75V10.8687H16.25H13.5C13.0858 10.8687 12.75 11.2044 12.75 11.6187C12.75 12.0329 13.0858 12.3687 13.5 12.3687H16.184H17.7015C17.334 15.1899 14.9214 17.3687 12 17.3687C9.07855 17.3687 6.66598 15.1899 6.29847 12.3687H7.81597H9C9.41421 12.3687 9.75 12.0329 9.75 11.6187C9.75 11.2044 9.41421 10.8687 9 10.8687H7.75H6.25V9.36865H7.75H9C9.41421 9.36865 9.75 9.03287 9.75 8.61865Z" fill="#fff"/>
<g id="Vector_3">
<path d="M12.75 11.6187C12.75 12.0329 13.0858 12.3687 13.5 12.3687H16.184H17.7015L17.75 10.8687H16.25H13.5C13.0858 10.8687 12.75 11.2044 12.75 11.6187Z" fill="#fff"/>
<path d="M12.75 8.61865C12.75 9.03287 13.0858 9.36865 13.5 9.36865L16.25 9.36865H17.75L17.7015 7.86865H16.184L13.5 7.86865C13.0858 7.86865 12.75 8.20444 12.75 8.61865Z" fill="#fff"/>
<path d="M9.75 8.61865C9.75 8.20444 9.41421 7.86865 9 7.86865H7.81597H6.29847L6.25 9.36865H7.75H9C9.41421 9.36865 9.75 9.03287 9.75 8.61865Z" fill="#fff"/>
<path d="M9.75 11.6187C9.75 11.2044 9.41421 10.8687 9 10.8687H7.75H6.25L6.29847 12.3687H7.81597H9C9.41421 12.3687 9.75 12.0329 9.75 11.6187Z" fill="#fff"/>
</g>
</g>
</svg>
