<svg width="12" height="13" viewBox="0 0 12 13" fill="none" xmlns="http://www.w3.org/2000/svg">
<path d="M6.41619 11.638C7.97916 11.3247 10 10.2003 10 7.29289C10 4.6471 8.06334 2.88527 6.67076 2.07573C6.36176 1.89609 6 2.13233 6 2.48976V3.404C6 4.12493 5.69689 5.44086 4.85466 5.9882C4.42466 6.26765 3.96026 5.8494 3.908 5.33924L3.86509 4.92033C3.8152 4.43332 3.31921 4.13768 2.92998 4.4346C2.23073 4.96802 1.5 5.9021 1.5 7.29289C1.5 10.8484 4.14444 11.7373 5.46667 11.7373C5.54357 11.7373 5.62439 11.735 5.70853 11.7302C5.05566 11.6744 4 11.2693 4 9.95942C4 8.93476 4.74754 8.24155 5.31551 7.9046C5.46827 7.81398 5.64706 7.93164 5.64706 8.10926V8.40386C5.64706 8.62933 5.73425 8.98175 5.94182 9.223C6.17669 9.496 6.52146 9.21002 6.54926 8.85096C6.55803 8.73769 6.67194 8.66551 6.77004 8.72284C7.09069 8.91023 7.5 9.31057 7.5 9.95942C7.5 10.9834 6.93551 11.4545 6.41619 11.638Z" fill="#9E86FF"/>
</svg>
