<svg width="17" height="17" viewBox="0 0 17 17" fill="none" xmlns="http://www.w3.org/2000/svg">
<g clip-path="url(#clip0_777_7097)">
<path fill-rule="evenodd" clip-rule="evenodd" d="M4.11795 1.57068H4.15984C4.60876 1.57067 4.9759 1.57067 5.27428 1.59505C5.58312 1.62028 5.86205 1.6741 6.12254 1.80683C6.53023 2.01456 6.86168 2.34602 7.06941 2.7537C7.20214 3.01419 7.25596 3.29313 7.2812 3.60197C7.30557 3.90034 7.30557 4.26747 7.30556 4.71639V5.02536L8.67592 3.655C8.99335 3.33756 9.25296 3.07794 9.48118 2.8842C9.71741 2.68366 9.9527 2.52448 10.2308 2.43414C10.6659 2.29274 11.1347 2.29274 11.5698 2.43414C11.8479 2.52448 12.0832 2.68366 12.3194 2.8842C12.5476 3.07794 12.8072 3.33754 13.1246 3.65497L13.1543 3.68465C13.4717 4.00206 13.7313 4.26165 13.9251 4.48987C14.1256 4.72609 14.2848 4.96139 14.3751 5.23944C14.5165 5.6746 14.5165 6.14335 14.3751 6.57851C14.2848 6.85656 14.1256 7.09185 13.9251 7.32808C13.7313 7.55629 13.4717 7.81589 13.1543 8.1333L11.7169 9.57068H12.1599C12.6088 9.57067 12.9759 9.57067 13.2743 9.59505C13.5831 9.62028 13.862 9.6741 14.1225 9.80683C14.5302 10.0146 14.8617 10.346 15.0694 10.7537C15.2021 11.0142 15.256 11.2931 15.2812 11.602C15.3056 11.9003 15.3056 12.2675 15.3056 12.7164V12.7583C15.3056 13.2072 15.3056 13.5744 15.2812 13.8727C15.256 14.1816 15.2021 14.4605 15.0694 14.721C14.8617 15.1287 14.5302 15.4601 14.1225 15.6679C13.862 15.8006 13.5831 15.8544 13.2743 15.8796C12.9759 15.904 12.6088 15.904 12.1599 15.904H4.19712C4.18476 15.904 4.17234 15.904 4.15985 15.904H4.11794C3.66902 15.904 3.30189 15.904 3.00352 15.8796C2.69468 15.8544 2.41574 15.8006 2.15525 15.6679C1.74757 15.4601 1.41611 15.1287 1.20838 14.721C1.07565 14.4605 1.02183 14.1816 0.996597 13.8727C0.972219 13.5743 0.972223 13.2072 0.972229 12.7583V4.7164C0.972223 4.26748 0.972219 3.90034 0.996597 3.60197C1.02183 3.29313 1.07565 3.01419 1.20838 2.7537C1.41611 2.34602 1.74757 2.01456 2.15525 1.80683C2.41574 1.6741 2.69468 1.62028 3.00352 1.59505C3.30189 1.57067 3.66903 1.57067 4.11795 1.57068ZM6.96464 14.904H12.1389C12.6139 14.904 12.94 14.9036 13.1928 14.883C13.4398 14.8628 13.5725 14.8258 13.6686 14.7769C13.8881 14.665 14.0666 14.4865 14.1784 14.267C14.2273 14.171 14.2643 14.0383 14.2845 13.7913C14.3052 13.5385 14.3056 13.2123 14.3056 12.7373C14.3056 12.2624 14.3052 11.9362 14.2845 11.6834C14.2643 11.4364 14.2273 11.3037 14.1784 11.2077C14.0666 10.9882 13.8881 10.8097 13.6686 10.6978C13.5725 10.6489 13.4398 10.6119 13.1928 10.5917C12.94 10.5711 12.6139 10.5707 12.1389 10.5707H10.7169L7.26638 14.0212C7.23635 14.2719 7.18053 14.5029 7.06941 14.721C7.03737 14.7839 7.00239 14.8449 6.96464 14.904ZM7.30556 12.5678L12.4324 7.44104C12.7682 7.10519 12.9985 6.87429 13.1627 6.6809C13.3231 6.49198 13.3908 6.37199 13.4241 6.26949C13.5002 6.03517 13.5002 5.78277 13.4241 5.54845C13.3908 5.44596 13.3231 5.32597 13.1627 5.13704C12.9985 4.94365 12.7682 4.71276 12.4324 4.37691C12.0965 4.04106 11.8656 3.81071 11.6722 3.64654C11.4833 3.48615 11.3633 3.4185 11.2608 3.38519C11.0265 3.30906 10.7741 3.30906 10.5398 3.38519C10.4373 3.4185 10.3173 3.48615 10.1284 3.64654C9.93497 3.81071 9.70407 4.04106 9.36822 4.37691L7.94016 5.80497C7.52594 6.21919 7.42358 6.33407 7.369 6.46584C7.31468 6.59698 7.30565 6.74975 7.30556 7.32855C7.30556 7.33137 7.30556 7.3342 7.30556 7.33703L7.30556 12.5678ZM6.30556 12.7649C6.30554 13.2249 6.30477 13.5434 6.28452 13.7913C6.26434 14.0383 6.22733 14.171 6.1784 14.267C6.06655 14.4865 5.88807 14.665 5.66855 14.7769C5.57253 14.8258 5.43984 14.8628 5.19284 14.883C4.94001 14.9036 4.61386 14.904 4.1389 14.904C3.66393 14.904 3.33779 14.9036 3.08495 14.883C2.83795 14.8628 2.70527 14.8258 2.60924 14.7769C2.38972 14.665 2.21124 14.4865 2.09939 14.267C2.05046 14.171 2.01346 14.0383 1.99328 13.7913C1.97262 13.5385 1.97223 13.2123 1.97223 12.7373V4.73735C1.97223 4.26238 1.97262 3.93623 1.99328 3.6834C2.01346 3.4364 2.05046 3.30372 2.09939 3.20769C2.21124 2.98817 2.38972 2.80969 2.60924 2.69784C2.70527 2.64891 2.83795 2.61191 3.08495 2.59173C3.33779 2.57107 3.66393 2.57068 4.1389 2.57068C4.61386 2.57068 4.94001 2.57107 5.19284 2.59173C5.43984 2.61191 5.57253 2.64891 5.66855 2.69784C5.88807 2.80969 6.06655 2.98817 6.1784 3.20769C6.22733 3.30372 6.26434 3.4364 6.28452 3.6834C6.30517 3.93623 6.30556 4.26238 6.30556 4.73735V7.10347C6.30541 7.15331 6.30546 7.20428 6.30551 7.25647C6.30554 7.283 6.30556 7.30985 6.30556 7.33703L6.30556 12.7373C6.30556 12.7466 6.30556 12.7557 6.30556 12.7649ZM2.97223 13.404C2.97223 13.1279 3.19609 12.904 3.47223 12.904H4.80556C5.0817 12.904 5.30556 13.1279 5.30556 13.404C5.30556 13.6802 5.0817 13.904 4.80556 13.904H3.47223C3.19609 13.904 2.97223 13.6802 2.97223 13.404Z" fill="#9593A0"/>
</g>
<defs>
<clipPath id="clip0_777_7097">
<rect x="0.138916" y="0.737305" width="16" height="16" rx="5" fill="white"/>
</clipPath>
</defs>
</svg>
