<svg width="24" height="25" viewBox="0 0 24 25" fill="none" xmlns="http://www.w3.org/2000/svg">
<path fill-rule="evenodd" clip-rule="evenodd" d="M22.75 7.86865C22.75 4.69302 20.1756 2.11865 17 2.11865C13.8243 2.11865 11.25 4.69302 11.25 7.86865C11.25 8.78712 11.4659 9.65731 11.8504 10.4293C11.859 10.4466 11.8623 10.4605 11.8634 10.4689C11.8639 10.4728 11.8638 10.4751 11.8638 10.4761L11.5662 11.5881C11.2878 12.6288 12.2398 13.5809 13.2805 13.3024L14.3925 13.0049C14.3911 13.0052 14.3916 13.0049 14.3925 13.0049C14.3935 13.0048 14.3958 13.0048 14.3998 13.0052C14.4082 13.0063 14.4221 13.0096 14.4394 13.0183C15.2113 13.4028 16.0815 13.6187 17 13.6187C20.1756 13.6187 22.75 11.0443 22.75 7.86865ZM14.3935 13.0046L14.3925 13.0049L14.3935 13.0046ZM17 3.61865C19.3472 3.61865 21.25 5.52144 21.25 7.86865C21.25 10.2159 19.3472 12.1187 17 12.1187C16.3188 12.1187 15.677 11.9589 15.1081 11.6756C14.7889 11.5166 14.3977 11.4507 14.0058 11.5556L13.06 11.8087L13.313 10.8628C13.4179 10.4709 13.352 10.0798 13.193 9.76051C12.9097 9.19163 12.75 8.54987 12.75 7.86865C12.75 5.52144 14.6528 3.61865 17 3.61865Z" fill="white"/>
<path fill-rule="evenodd" clip-rule="evenodd" d="M17 5.11865C17.4142 5.11865 17.75 5.45444 17.75 5.86865V7.11865H19C19.4142 7.11865 19.75 7.45444 19.75 7.86865C19.75 8.28287 19.4142 8.61865 19 8.61865H17.75V9.86865C17.75 10.2829 17.4142 10.6187 17 10.6187C16.5858 10.6187 16.25 10.2829 16.25 9.86865V8.61865H15C14.5858 8.61865 14.25 8.28287 14.25 7.86865C14.25 7.45444 14.5858 7.11865 15 7.11865H16.25V5.86865C16.25 5.45444 16.5858 5.11865 17 5.11865Z" fill="white"/>
<path fill-rule="evenodd" clip-rule="evenodd" d="M3.00745 7.27555C4.68752 5.59548 7.52266 5.7232 8.69248 7.81933L9.34149 8.98225C10.1054 10.3511 9.77987 12.0782 8.66157 13.2101C8.64668 13.2305 8.56774 13.3455 8.55791 13.5463C8.54536 13.8026 8.63639 14.3954 9.55482 15.3138C10.4729 16.2319 11.0656 16.3232 11.3221 16.3107C11.5231 16.3009 11.6381 16.222 11.6585 16.207C12.7905 15.0888 14.5176 14.7632 15.8864 15.5271L17.0493 16.1761C19.1454 17.346 19.2731 20.1811 17.5931 21.8612C16.6944 22.7598 15.4995 23.5583 14.0953 23.6116C12.0144 23.6904 8.55913 23.1531 5.13735 19.7313C1.71556 16.3095 1.17818 12.8543 1.25706 10.7733C1.3103 9.36913 2.10879 8.17421 3.00745 7.27555ZM7.38265 8.55032C6.78363 7.47698 5.17394 7.23038 4.06811 8.33621C3.29276 9.11156 2.7887 9.96738 2.75599 10.8302C2.6902 12.5655 3.11864 15.5913 6.19801 18.6706C9.27737 21.75 12.3031 22.1784 14.0385 22.1126C14.9013 22.0799 15.7571 21.5759 16.5324 20.8005C17.6382 19.6947 17.3916 18.085 16.3183 17.486L15.1554 16.837C14.432 16.4332 13.4158 16.571 12.7025 17.2842C12.6325 17.3543 12.1864 17.7704 11.395 17.8089C10.5847 17.8484 9.604 17.4843 8.49416 16.3745C7.38395 15.2643 7.02003 14.2833 7.0597 13.4729C7.09846 12.6814 7.51468 12.2358 7.58432 12.1662C8.29764 11.4528 8.43539 10.4367 8.03166 9.71325L7.38265 8.55032Z" fill="white"/>
</svg>
