<svg width="24" height="25" viewBox="0 0 24 25" fill="none" xmlns="http://www.w3.org/2000/svg">
<path fill-rule="evenodd" clip-rule="evenodd" d="M16.245 8.6288L21.4166 3.45721L21.414 3.45461C20.2268 2.26734 17.9776 3.01707 13.4792 4.51653L8.32987 6.23297C4.69923 7.44318 2.88392 8.04829 2.36806 8.93563C1.87731 9.77978 1.87731 10.8223 2.36806 11.6665C2.88392 12.5538 4.69923 13.1589 8.32987 14.3691C8.77981 14.5191 9.28601 14.412 9.62294 14.0782L15.1286 8.62361C15.4383 8.31674 15.9382 8.31906 16.245 8.6288Z" fill="#fff"/>
<path opacity="0.5" d="M18.6356 16.5381L20.3521 11.3888C21.8505 6.89369 22.6002 4.64449 21.4166 3.45654L16.245 8.62814C16.5519 8.93788 16.5495 9.43774 16.2398 9.74461L10.8231 15.1112C10.4517 15.4791 10.3342 16.0422 10.4995 16.5381C11.7097 20.1687 12.3148 21.9841 13.2021 22.4999C14.0463 22.9907 15.0888 22.9907 15.933 22.4999C16.8203 21.9841 17.4254 20.1688 18.6356 16.5381Z" fill="#fff"/>
</svg>
