<svg width="24" height="25" viewBox="0 0 24 25" fill="none" xmlns="http://www.w3.org/2000/svg">
<path opacity="0.5" d="M22 12.8687C22 18.3915 17.5228 22.8687 12 22.8687C6.47715 22.8687 2 18.3915 2 12.8687C2 7.3458 6.47715 2.86865 12 2.86865C17.5228 2.86865 22 7.3458 22 12.8687Z" fill="#000"/>
<path d="M10.4127 9.36653L10.5766 9.0726C11.2099 7.93648 11.5266 7.36841 12 7.36841C12.4734 7.36841 12.7901 7.93647 13.4234 9.0726L13.5873 9.36654C13.7672 9.68938 13.8572 9.8508 13.9975 9.95731C14.1378 10.0638 14.3126 10.1034 14.6621 10.1824L14.9802 10.2544C16.2101 10.5327 16.825 10.6718 16.9713 11.1423C17.1176 11.6127 16.6984 12.1029 15.86 13.0834L15.643 13.337C15.4048 13.6156 15.2857 13.7549 15.2321 13.9273C15.1785 14.0996 15.1965 14.2855 15.2325 14.6572L15.2653 14.9956C15.3921 16.3037 15.4554 16.9578 15.0724 17.2485C14.6894 17.5393 14.1137 17.2742 12.9622 16.744L12.6643 16.6068C12.337 16.4562 12.1734 16.3808 12 16.3808C11.8266 16.3808 11.663 16.4562 11.3357 16.6068L11.0378 16.744C9.88633 17.2742 9.31059 17.5393 8.92757 17.2485C8.54456 16.9578 8.60794 16.3037 8.7347 14.9956L8.76749 14.6572C8.80351 14.2855 8.82152 14.0996 8.76793 13.9273C8.71434 13.7549 8.59521 13.6156 8.35696 13.337L8.14005 13.0834C7.30162 12.1029 6.88241 11.6127 7.02871 11.1423C7.17501 10.6718 7.78994 10.5327 9.01977 10.2544L9.33794 10.1824C9.68743 10.1034 9.86217 10.0638 10.0025 9.95731C10.1428 9.8508 10.2328 9.68938 10.4127 9.36653Z" fill="#fff"/>
</svg>
