<svg width="32" height="33" viewBox="0 0 32 33" fill="none" xmlns="http://www.w3.org/2000/svg">
<path fill-rule="evenodd" clip-rule="evenodd" d="M16 2.53534C16.5523 2.53534 17 2.98305 17 3.53534V5.24426C22.6456 5.72351 27.1452 10.2231 27.6244 15.8687H29.3333C29.8856 15.8687 30.3333 16.3164 30.3333 16.8687C30.3333 17.421 29.8856 17.8687 29.3333 17.8687H27.6244C27.1452 23.5143 22.6456 28.0138 17 28.4931V30.202C17 30.7543 16.5523 31.202 16 31.202C15.4477 31.202 15 30.7543 15 30.202V28.4931C9.35441 28.0138 4.85484 23.5143 4.37559 17.8687H2.66666C2.11438 17.8687 1.66666 17.421 1.66666 16.8687C1.66666 16.3164 2.11438 15.8687 2.66666 15.8687H4.37559C4.85484 10.2231 9.35441 5.72351 15 5.24426V3.53534C15 2.98305 15.4477 2.53534 16 2.53534ZM16 7.20201C10.6612 7.20201 6.33333 11.5299 6.33333 16.8687C6.33333 22.2074 10.6612 26.5353 16 26.5353C21.3387 26.5353 25.6667 22.2074 25.6667 16.8687C25.6667 11.5299 21.3387 7.20201 16 7.20201ZM16 13.8687C14.3431 13.8687 13 15.2118 13 16.8687C13 18.5255 14.3431 19.8687 16 19.8687C17.6569 19.8687 19 18.5255 19 16.8687C19 15.2118 17.6569 13.8687 16 13.8687ZM11 16.8687C11 14.1072 13.2386 11.8687 16 11.8687C18.7614 11.8687 21 14.1072 21 16.8687C21 19.6301 18.7614 21.8687 16 21.8687C13.2386 21.8687 11 19.6301 11 16.8687Z" fill="white"/>
</svg>
