<svg width="32" height="33" viewBox="0 0 32 33" fill="none" xmlns="http://www.w3.org/2000/svg">
<g id="Bold / Money / Ticker Star">
<path id="Vector" fill-rule="evenodd" clip-rule="evenodd" d="M13.3285 6.20203H18.6717C23.7093 6.20203 26.2281 6.20203 27.7931 7.76412C28.9646 8.93347 29.2591 10.6363 29.3332 13.5279C29.3427 13.8987 29.0385 14.1949 28.6791 14.2889C27.5324 14.5888 26.6865 15.6301 26.6865 16.8687C26.6865 18.1073 27.5324 19.1486 28.6791 19.4485C29.0385 19.5425 29.3427 19.8387 29.3332 20.2094C29.2591 23.1011 28.9646 24.8039 27.7931 25.9733C26.2281 27.5354 23.7093 27.5354 18.6717 27.5354H13.3285C8.29087 27.5354 5.77206 27.5354 4.20708 25.9733C3.03557 24.8039 2.74102 23.1011 2.66696 20.2094C2.65747 19.8387 2.96169 19.5425 3.3211 19.4485C4.46774 19.1486 5.31369 18.1073 5.31369 16.8687C5.31369 15.6301 4.46774 14.5888 3.3211 14.2889C2.96169 14.1949 2.65747 13.8987 2.66696 13.5279C2.74102 10.6363 3.03557 8.93347 4.20708 7.76412C5.77206 6.20203 8.29087 6.20203 13.3285 6.20203ZM17.2722 14.4672L17.1409 14.232C16.6333 13.3231 16.3795 12.8687 16.0001 12.8687C15.6206 12.8687 15.3668 13.3231 14.8592 14.232L14.7279 14.4672C14.5837 14.7255 14.5116 14.8546 14.3991 14.9398C14.2867 15.025 14.1466 15.0567 13.8665 15.1199L13.6115 15.1775C12.6258 15.4001 12.1329 15.5114 12.0157 15.8878C11.8984 16.2642 12.2344 16.6563 12.9064 17.4407L13.0803 17.6436C13.2712 17.8665 13.3667 17.9779 13.4096 18.1158C13.4526 18.2536 13.4382 18.4023 13.4093 18.6997L13.383 18.9705C13.2814 20.0169 13.2306 20.5402 13.5376 20.7728C13.8446 21.0054 14.306 20.7933 15.2289 20.3692L15.4677 20.2594C15.73 20.1389 15.8611 20.0786 16.0001 20.0786C16.1391 20.0786 16.2702 20.1389 16.5325 20.2594L16.7712 20.3692C17.6941 20.7933 18.1556 21.0054 18.4626 20.7728C18.7695 20.5402 18.7187 20.0169 18.6172 18.9705L18.5909 18.6997C18.562 18.4023 18.5476 18.2536 18.5905 18.1158C18.6335 17.9779 18.7289 17.8665 18.9199 17.6436L19.0938 17.4407C19.7657 16.6563 20.1017 16.2642 19.9845 15.8878C19.8672 15.5114 19.3744 15.4001 18.3887 15.1775L18.1337 15.1199C17.8536 15.0567 17.7135 15.025 17.6011 14.9398C17.4886 14.8546 17.4165 14.7255 17.2722 14.4672Z" fill="white"/>
</g>
</svg>
