<svg width="24" height="25" viewBox="0 0 24 25" fill="none" xmlns="http://www.w3.org/2000/svg">
<path fill-rule="evenodd" clip-rule="evenodd" d="M12 2.11865C9.37665 2.11865 7.25 4.2453 7.25 6.86865C7.25 9.492 9.37665 11.6187 12 11.6187C14.6234 11.6187 16.75 9.492 16.75 6.86865C16.75 4.2453 14.6234 2.11865 12 2.11865ZM8.75 6.86865C8.75 5.07373 10.2051 3.61865 12 3.61865C13.7949 3.61865 15.25 5.07373 15.25 6.86865C15.25 8.66358 13.7949 10.1187 12 10.1187C10.2051 10.1187 8.75 8.66358 8.75 6.86865Z" fill="white"/>
<path fill-rule="evenodd" clip-rule="evenodd" d="M12 13.1187C9.96067 13.1187 8.07752 13.5894 6.67815 14.389C5.3 15.1766 4.25 16.3788 4.25 17.8687C4.25 19.3585 5.3 20.5607 6.67815 21.3483C8.07752 22.1479 9.96067 22.6187 12 22.6187C14.0393 22.6187 15.9225 22.1479 17.3219 21.3483C18.7 20.5607 19.75 19.3585 19.75 17.8687C19.75 16.3788 18.7 15.1766 17.3219 14.389C15.9225 13.5894 14.0393 13.1187 12 13.1187ZM5.75 17.8687C5.75 17.1494 6.26701 16.3516 7.42236 15.6914C8.55649 15.0433 10.1733 14.6187 12 14.6187C13.8267 14.6187 15.4435 15.0433 16.5776 15.6914C17.733 16.3516 18.25 17.1494 18.25 17.8687C18.25 18.5879 17.733 19.3857 16.5776 20.0459C15.4435 20.694 13.8267 21.1187 12 21.1187C10.1733 21.1187 8.55649 20.694 7.42236 20.0459C6.26701 19.3857 5.75 18.5879 5.75 17.8687Z" fill="white"/>
</svg>
